<svg xmlns="http://www.w3.org/2000/svg" xmlns:xlink="http://www.w3.org/1999/xlink" width="640" zoomAndPan="magnify" viewBox="430 485 640 445" height="445" preserveAspectRatio="xMidYMid meet" version="1.0"><defs><g/><clipPath id="54c6fa3d0d"><rect x="0" width="631" y="0" height="374"/></clipPath><clipPath id="44e04ab0d8"><path d="M 849 494.285156 L 865 494.285156 L 865 509 L 849 509 Z M 849 494.285156 " clip-rule="nonzero"/></clipPath><clipPath id="8cb26b838d"><path d="M 924 515 L 938.914062 515 L 938.914062 530 L 924 530 Z M 924 515 " clip-rule="nonzero"/></clipPath><clipPath id="94ff651b88"><path d="M 775.414062 515 L 790 515 L 790 530 L 775.414062 530 Z M 775.414062 515 " clip-rule="nonzero"/></clipPath><clipPath id="4e60e0426d"><path d="M 799 609 L 919 609 L 919 633.785156 L 799 633.785156 Z M 799 609 " clip-rule="nonzero"/></clipPath><clipPath id="e723c8990a"><path d="M 509.296875 819.457031 L 634.398438 819.457031 L 634.398438 857.492188 L 509.296875 857.492188 Z M 509.296875 819.457031 " clip-rule="nonzero"/></clipPath><clipPath id="f8bed63f48"><path d="M 513.796875 819.457031 L 629.808594 819.457031 C 632.292969 819.457031 634.308594 821.472656 634.308594 823.957031 L 634.308594 852.992188 C 634.308594 855.476562 632.292969 857.492188 629.808594 857.492188 L 513.796875 857.492188 C 511.3125 857.492188 509.296875 855.476562 509.296875 852.992188 L 509.296875 823.957031 C 509.296875 821.472656 511.3125 819.457031 513.796875 819.457031 Z M 513.796875 819.457031 " clip-rule="nonzero"/></clipPath><clipPath id="0deb7cc100"><path d="M 0.296875 0.457031 L 125.320312 0.457031 L 125.320312 38.492188 L 0.296875 38.492188 Z M 0.296875 0.457031 " clip-rule="nonzero"/></clipPath><clipPath id="014774cb30"><path d="M 4.796875 0.457031 L 120.808594 0.457031 C 123.292969 0.457031 125.308594 2.472656 125.308594 4.957031 L 125.308594 33.992188 C 125.308594 36.476562 123.292969 38.492188 120.808594 38.492188 L 4.796875 38.492188 C 2.3125 38.492188 0.296875 36.476562 0.296875 33.992188 L 0.296875 4.957031 C 0.296875 2.472656 2.3125 0.457031 4.796875 0.457031 Z M 4.796875 0.457031 " clip-rule="nonzero"/></clipPath><clipPath id="127011ed85"><rect x="0" width="126" y="0" height="39"/></clipPath><clipPath id="6226216464"><path d="M 567.070312 784.710938 L 607.8125 784.710938 L 607.8125 918.714844 L 567.070312 918.714844 Z M 567.070312 784.710938 " clip-rule="nonzero"/></clipPath><clipPath id="8eca5f8742"><path d="M 567.070312 914.214844 L 567.070312 789.308594 C 567.070312 786.824219 569.085938 784.808594 571.570312 784.808594 L 603.3125 784.808594 C 605.796875 784.808594 607.8125 786.824219 607.8125 789.308594 L 607.8125 914.214844 C 607.8125 916.699219 605.796875 918.714844 603.3125 918.714844 L 571.570312 918.714844 C 569.085938 918.714844 567.070312 916.699219 567.070312 914.214844 Z M 567.070312 914.214844 " clip-rule="nonzero"/></clipPath><clipPath id="f79b38889c"><path d="M 0.0703125 0.800781 L 40.8125 0.800781 L 40.8125 134.714844 L 0.0703125 134.714844 Z M 0.0703125 0.800781 " clip-rule="nonzero"/></clipPath><clipPath id="25b498db6d"><path d="M 0.0703125 130.214844 L 0.0703125 5.308594 C 0.0703125 2.824219 2.085938 0.808594 4.570312 0.808594 L 36.3125 0.808594 C 38.796875 0.808594 40.8125 2.824219 40.8125 5.308594 L 40.8125 130.214844 C 40.8125 132.699219 38.796875 134.714844 36.3125 134.714844 L 4.570312 134.714844 C 2.085938 134.714844 0.0703125 132.699219 0.0703125 130.214844 Z M 0.0703125 130.214844 " clip-rule="nonzero"/></clipPath><clipPath id="73a6f99504"><rect x="0" width="41" y="0" height="135"/></clipPath></defs><g transform="matrix(1, 0, 0, 1, 435, 563)"><g clip-path="url(#54c6fa3d0d)"><g fill="#d4af37" fill-opacity="1"><g transform="translate(0.67772, 293.59046)"><g><path d="M 53.125 -37.890625 L 111.453125 -37.890625 C 112.710938 -37.890625 113.785156 -37.441406 114.671875 -36.546875 C 115.566406 -35.660156 116.015625 -34.328125 116.015625 -32.546875 L 116.015625 -5.5 C 116.015625 -3.613281 115.566406 -2.222656 114.671875 -1.328125 C 113.785156 -0.441406 112.710938 0 111.453125 0 L 16.65625 0 C 13.09375 0 11.3125 -1.988281 11.3125 -5.96875 L 11.3125 -211.421875 C 11.3125 -215.515625 13.09375 -217.5625 16.65625 -217.5625 L 110.671875 -217.5625 C 113.597656 -217.5625 115.0625 -215.625 115.0625 -211.75 L 115.0625 -185.015625 C 115.0625 -181.242188 113.597656 -179.359375 110.671875 -179.359375 L 53.125 -179.359375 L 53.125 -128.90625 L 99.03125 -128.90625 C 100.394531 -128.90625 101.570312 -128.484375 102.5625 -127.640625 C 103.5625 -126.804688 104.0625 -125.394531 104.0625 -123.40625 L 104.0625 -96.515625 C 104.0625 -94.628906 103.585938 -93.265625 102.640625 -92.421875 C 101.703125 -91.585938 100.5 -91.171875 99.03125 -91.171875 L 53.125 -91.171875 Z M 53.125 -37.890625 "/></g></g><g transform="translate(120.304939, 293.59046)"><g><path d="M 106.265625 0 L 16.65625 0 C 13.09375 0 11.3125 -1.988281 11.3125 -5.96875 L 11.3125 -211.421875 C 11.3125 -215.515625 13.039062 -217.5625 16.5 -217.5625 L 47.9375 -217.5625 C 51.394531 -217.5625 53.125 -215.515625 53.125 -211.421875 L 53.125 -37.890625 L 106.265625 -37.890625 C 109.203125 -37.890625 110.671875 -36.109375 110.671875 -32.546875 L 110.671875 -5.65625 C 110.671875 -1.882812 109.203125 0 106.265625 0 Z M 106.265625 0 "/></g></g><g transform="translate(234.430249, 293.59046)"><g><path d="M 53.125 -37.890625 L 111.453125 -37.890625 C 112.710938 -37.890625 113.785156 -37.441406 114.671875 -36.546875 C 115.566406 -35.660156 116.015625 -34.328125 116.015625 -32.546875 L 116.015625 -5.5 C 116.015625 -3.613281 115.566406 -2.222656 114.671875 -1.328125 C 113.785156 -0.441406 112.710938 0 111.453125 0 L 16.65625 0 C 13.09375 0 11.3125 -1.988281 11.3125 -5.96875 L 11.3125 -211.421875 C 11.3125 -215.515625 13.09375 -217.5625 16.65625 -217.5625 L 110.671875 -217.5625 C 113.597656 -217.5625 115.0625 -215.625 115.0625 -211.75 L 115.0625 -185.015625 C 115.0625 -181.242188 113.597656 -179.359375 110.671875 -179.359375 L 53.125 -179.359375 L 53.125 -128.90625 L 99.03125 -128.90625 C 100.394531 -128.90625 101.570312 -128.484375 102.5625 -127.640625 C 103.5625 -126.804688 104.0625 -125.394531 104.0625 -123.40625 L 104.0625 -96.515625 C 104.0625 -94.628906 103.585938 -93.265625 102.640625 -92.421875 C 101.703125 -91.585938 100.5 -91.171875 99.03125 -91.171875 L 53.125 -91.171875 Z M 53.125 -37.890625 "/></g></g><g transform="translate(354.057468, 293.59046)"><g><path d="M 102.171875 -109.25 C 111.191406 -102.332031 118.210938 -93.582031 123.234375 -83 C 128.265625 -72.414062 130.78125 -60.15625 130.78125 -46.21875 L 130.78125 -6.609375 C 130.78125 -5.242188 130.359375 -3.800781 129.515625 -2.28125 C 128.679688 -0.757812 127.21875 0 125.125 0 L 95.890625 0 C 94.109375 0 92.484375 -0.597656 91.015625 -1.796875 C 89.546875 -3.003906 88.8125 -4.765625 88.8125 -7.078125 L 88.8125 -41.34375 C 88.8125 -50.457031 87.765625 -58.472656 85.671875 -65.390625 C 83.578125 -72.304688 79.9375 -77.78125 74.75 -81.8125 C 69.5625 -85.851562 62.351562 -88.082031 53.125 -88.5 L 53.125 -5.96875 C 53.125 -1.988281 51.453125 0 48.109375 0 L 16.65625 0 C 13.09375 0 11.3125 -1.988281 11.3125 -5.96875 L 11.3125 -211.421875 C 11.3125 -215.515625 13.09375 -217.5625 16.65625 -217.5625 L 47.9375 -217.5625 C 51.394531 -217.5625 53.125 -215.515625 53.125 -211.421875 L 53.125 -127.953125 C 61.820312 -128.691406 68.582031 -131.101562 73.40625 -135.1875 C 78.226562 -139.269531 81.632812 -144.742188 83.625 -151.609375 C 85.613281 -158.472656 86.609375 -166.304688 86.609375 -175.109375 L 86.609375 -210.328125 C 86.609375 -212.734375 87.367188 -214.539062 88.890625 -215.75 C 90.410156 -216.957031 92.0625 -217.5625 93.84375 -217.5625 L 122.921875 -217.5625 C 125.023438 -217.5625 126.492188 -216.800781 127.328125 -215.28125 C 128.171875 -213.757812 128.59375 -212.265625 128.59375 -210.796875 L 128.59375 -170.40625 C 128.59375 -157.09375 126.285156 -145.300781 121.671875 -135.03125 C 117.054688 -124.757812 110.554688 -116.164062 102.171875 -109.25 Z M 102.171875 -109.25 "/></g></g><g transform="translate(492.076782, 293.59046)"><g><path d="M 51.875 -164.109375 L 51.875 -88.5 L 85.359375 -88.5 L 85.359375 -164.109375 C 85.359375 -169.035156 83.890625 -173.410156 80.953125 -177.234375 C 78.015625 -181.054688 73.925781 -182.96875 68.6875 -182.96875 C 63.34375 -182.96875 59.203125 -181.054688 56.265625 -177.234375 C 53.335938 -173.410156 51.875 -169.035156 51.875 -164.109375 Z M 127.328125 -166.46875 L 127.328125 -6.28125 C 127.328125 -4.71875 126.929688 -3.28125 126.140625 -1.96875 C 125.359375 -0.65625 124.078125 0 122.296875 0 L 90.390625 0 C 88.816406 0 87.582031 -0.625 86.6875 -1.875 C 85.800781 -3.132812 85.359375 -4.601562 85.359375 -6.28125 L 85.359375 -51.875 L 51.875 -51.875 L 51.875 -6.125 C 51.875 -4.445312 51.554688 -3.003906 50.921875 -1.796875 C 50.296875 -0.597656 49.039062 0 47.15625 0 L 13.984375 0 C 12.835938 0 11.867188 -0.597656 11.078125 -1.796875 C 10.296875 -3.003906 9.90625 -4.445312 9.90625 -6.125 L 9.90625 -166.46875 C 9.90625 -174.007812 11.472656 -181.082031 14.609375 -187.6875 C 17.753906 -194.289062 22.023438 -200.082031 27.421875 -205.0625 C 32.828125 -210.039062 39.066406 -213.941406 46.140625 -216.765625 C 53.210938 -219.597656 60.675781 -221.015625 68.53125 -221.015625 C 76.394531 -221.015625 83.863281 -219.597656 90.9375 -216.765625 C 98.007812 -213.941406 104.269531 -210.039062 109.71875 -205.0625 C 115.164062 -200.082031 119.460938 -194.289062 122.609375 -187.6875 C 125.753906 -181.082031 127.328125 -174.007812 127.328125 -166.46875 Z M 127.328125 -166.46875 "/></g></g></g></g></g><g clip-path="url(#44e04ab0d8)"><path fill="#d4af37" d="M 864.410156 501.542969 C 864.410156 502.015625 864.363281 502.488281 864.269531 502.957031 C 864.175781 503.421875 864.039062 503.875 863.855469 504.316406 C 863.675781 504.757812 863.453125 505.175781 863.1875 505.570312 C 862.921875 505.96875 862.625 506.332031 862.285156 506.671875 C 861.949219 507.007812 861.585938 507.308594 861.1875 507.574219 C 860.792969 507.835938 860.375 508.0625 859.9375 508.242188 C 859.496094 508.425781 859.042969 508.5625 858.578125 508.65625 C 858.113281 508.75 857.640625 508.796875 857.164062 508.796875 C 856.6875 508.796875 856.21875 508.75 855.75 508.65625 C 855.285156 508.5625 854.832031 508.425781 854.394531 508.242188 C 853.953125 508.0625 853.535156 507.835938 853.140625 507.574219 C 852.746094 507.308594 852.378906 507.007812 852.042969 506.671875 C 851.707031 506.332031 851.40625 505.96875 851.140625 505.570312 C 850.878906 505.175781 850.65625 504.757812 850.472656 504.316406 C 850.289062 503.875 850.152344 503.421875 850.058594 502.957031 C 849.96875 502.488281 849.921875 502.015625 849.921875 501.542969 C 849.921875 501.066406 849.96875 500.59375 850.058594 500.125 C 850.152344 499.660156 850.289062 499.207031 850.472656 498.765625 C 850.65625 498.324219 850.878906 497.90625 851.140625 497.511719 C 851.40625 497.113281 851.707031 496.75 852.042969 496.410156 C 852.378906 496.074219 852.746094 495.773438 853.140625 495.507812 C 853.535156 495.246094 853.953125 495.019531 854.394531 494.839844 C 854.832031 494.65625 855.285156 494.519531 855.75 494.425781 C 856.21875 494.332031 856.6875 494.285156 857.164062 494.285156 C 857.640625 494.285156 858.113281 494.332031 858.578125 494.425781 C 859.042969 494.519531 859.496094 494.65625 859.9375 494.839844 C 860.375 495.019531 860.792969 495.246094 861.1875 495.507812 C 861.585938 495.773438 861.949219 496.074219 862.285156 496.410156 C 862.625 496.75 862.921875 497.113281 863.1875 497.511719 C 863.453125 497.90625 863.675781 498.324219 863.855469 498.765625 C 864.039062 499.207031 864.175781 499.660156 864.269531 500.125 C 864.363281 500.59375 864.410156 501.066406 864.410156 501.542969 Z M 864.410156 501.542969 " fill-opacity="1" fill-rule="nonzero"/></g><g clip-path="url(#8cb26b838d)"><path fill="#d4af37" d="M 938.890625 522.371094 C 938.890625 522.847656 938.84375 523.320312 938.753906 523.789062 C 938.660156 524.253906 938.523438 524.707031 938.339844 525.148438 C 938.15625 525.589844 937.933594 526.007812 937.671875 526.402344 C 937.40625 526.800781 937.105469 527.164062 936.769531 527.503906 C 936.433594 527.839844 936.066406 528.140625 935.671875 528.40625 C 935.277344 528.667969 934.859375 528.890625 934.417969 529.074219 C 933.980469 529.257812 933.527344 529.394531 933.0625 529.488281 C 932.59375 529.582031 932.121094 529.628906 931.648438 529.628906 C 931.171875 529.628906 930.699219 529.582031 930.234375 529.488281 C 929.769531 529.394531 929.316406 529.257812 928.875 529.074219 C 928.4375 528.890625 928.019531 528.667969 927.621094 528.40625 C 927.226562 528.140625 926.863281 527.839844 926.523438 527.503906 C 926.1875 527.164062 925.886719 526.800781 925.625 526.402344 C 925.359375 526.007812 925.136719 525.589844 924.953125 525.148438 C 924.773438 524.707031 924.636719 524.253906 924.542969 523.789062 C 924.449219 523.320312 924.402344 522.847656 924.402344 522.371094 C 924.402344 521.898438 924.449219 521.425781 924.542969 520.957031 C 924.636719 520.492188 924.773438 520.035156 924.953125 519.597656 C 925.136719 519.15625 925.359375 518.738281 925.625 518.34375 C 925.886719 517.945312 926.1875 517.582031 926.523438 517.242188 C 926.863281 516.90625 927.226562 516.605469 927.621094 516.339844 C 928.019531 516.078125 928.4375 515.851562 928.875 515.671875 C 929.316406 515.488281 929.769531 515.351562 930.234375 515.257812 C 930.699219 515.164062 931.171875 515.117188 931.648438 515.117188 C 932.121094 515.117188 932.59375 515.164062 933.0625 515.257812 C 933.527344 515.351562 933.980469 515.488281 934.417969 515.671875 C 934.859375 515.851562 935.277344 516.078125 935.671875 516.339844 C 936.066406 516.605469 936.433594 516.90625 936.769531 517.242188 C 937.105469 517.582031 937.40625 517.945312 937.671875 518.34375 C 937.933594 518.738281 938.15625 519.15625 938.339844 519.597656 C 938.523438 520.035156 938.660156 520.492188 938.753906 520.957031 C 938.84375 521.425781 938.890625 521.898438 938.890625 522.371094 Z M 938.890625 522.371094 " fill-opacity="1" fill-rule="nonzero"/></g><g clip-path="url(#94ff651b88)"><path fill="#d4af37" d="M 789.925781 522.371094 C 789.925781 522.847656 789.878906 523.320312 789.785156 523.789062 C 789.695312 524.253906 789.558594 524.707031 789.375 525.148438 C 789.191406 525.589844 788.96875 526.007812 788.707031 526.402344 C 788.441406 526.800781 788.140625 527.164062 787.804688 527.503906 C 787.46875 527.839844 787.101562 528.140625 786.707031 528.40625 C 786.3125 528.667969 785.894531 528.890625 785.453125 529.074219 C 785.015625 529.257812 784.5625 529.394531 784.09375 529.488281 C 783.628906 529.582031 783.15625 529.628906 782.683594 529.628906 C 782.207031 529.628906 781.734375 529.582031 781.269531 529.488281 C 780.800781 529.394531 780.351562 529.257812 779.910156 529.074219 C 779.472656 528.890625 779.054688 528.667969 778.65625 528.40625 C 778.261719 528.140625 777.894531 527.839844 777.558594 527.503906 C 777.222656 527.164062 776.921875 526.800781 776.660156 526.402344 C 776.394531 526.007812 776.171875 525.589844 775.988281 525.148438 C 775.808594 524.707031 775.671875 524.253906 775.578125 523.789062 C 775.484375 523.320312 775.4375 522.847656 775.4375 522.371094 C 775.4375 521.898438 775.484375 521.425781 775.578125 520.957031 C 775.671875 520.492188 775.808594 520.035156 775.988281 519.597656 C 776.171875 519.15625 776.394531 518.738281 776.660156 518.34375 C 776.921875 517.945312 777.222656 517.582031 777.558594 517.242188 C 777.894531 516.90625 778.261719 516.605469 778.65625 516.339844 C 779.054688 516.078125 779.472656 515.851562 779.910156 515.671875 C 780.351562 515.488281 780.800781 515.351562 781.269531 515.257812 C 781.734375 515.164062 782.207031 515.117188 782.683594 515.117188 C 783.15625 515.117188 783.628906 515.164062 784.09375 515.257812 C 784.5625 515.351562 785.015625 515.488281 785.453125 515.671875 C 785.894531 515.851562 786.3125 516.078125 786.707031 516.339844 C 787.101562 516.605469 787.46875 516.90625 787.804688 517.242188 C 788.140625 517.582031 788.441406 517.945312 788.707031 518.34375 C 788.96875 518.738281 789.191406 519.15625 789.375 519.597656 C 789.558594 520.035156 789.695312 520.492188 789.785156 520.957031 C 789.878906 521.425781 789.925781 521.898438 789.925781 522.371094 Z M 789.925781 522.371094 " fill-opacity="1" fill-rule="nonzero"/></g><g clip-path="url(#4e60e0426d)"><path fill="#d4af37" d="M 918.460938 613.328125 C 918.460938 611.28125 916.789062 609.605469 914.746094 609.605469 L 803.300781 609.605469 C 801.257812 609.605469 799.585938 611.28125 799.585938 613.328125 L 799.585938 630.066406 C 799.585938 632.113281 801.257812 633.785156 803.300781 633.785156 L 914.746094 633.785156 C 916.789062 633.785156 918.460938 632.113281 918.460938 630.066406 Z M 918.460938 613.328125 " fill-opacity="1" fill-rule="nonzero"/></g><path fill="#d4af37" d="M 780.269531 536.882812 L 796.613281 594.542969 C 797.355469 596.773438 799.398438 598.445312 801.8125 598.445312 L 912.515625 598.445312 C 914.929688 598.445312 916.972656 596.960938 917.714844 594.542969 L 934.0625 536.882812 C 934.433594 535.394531 933.132812 534.089844 931.648438 534.648438 L 884.46875 551.574219 C 883.726562 551.945312 882.796875 551.574219 882.238281 550.832031 L 858.652344 515.304688 C 857.90625 514.1875 856.234375 514.1875 855.492188 515.304688 L 831.902344 550.644531 C 831.347656 551.390625 830.417969 551.761719 829.675781 551.390625 L 782.683594 534.648438 C 781.195312 534.089844 779.710938 535.394531 780.269531 536.882812 Z M 780.269531 536.882812 " fill-opacity="1" fill-rule="nonzero"/><g clip-path="url(#e723c8990a)"><g clip-path="url(#f8bed63f48)"><g transform="matrix(1, 0, 0, 1, 509, 819)"><g clip-path="url(#127011ed85)"><g clip-path="url(#0deb7cc100)"><g clip-path="url(#014774cb30)"><path fill="#d4af37" d="M 0.296875 38.492188 L 0.296875 0.457031 L 125.25 0.457031 L 125.25 38.492188 Z M 0.296875 38.492188 " fill-opacity="1" fill-rule="nonzero"/></g></g></g></g></g></g><g clip-path="url(#6226216464)"><g clip-path="url(#8eca5f8742)"><g transform="matrix(1, 0, 0, 1, 567, 784)"><g clip-path="url(#73a6f99504)"><g clip-path="url(#f79b38889c)"><g clip-path="url(#25b498db6d)"><path fill="#d4af37" d="M 40.8125 134.714844 L 0.0703125 134.714844 L 0.0703125 0.871094 L 40.8125 0.871094 Z M 40.8125 134.714844 " fill-opacity="1" fill-rule="nonzero"/></g></g></g></g></g></g></svg>